<svg width="233" height="208" viewBox="0 0 233 208" fill="none" xmlns="http://www.w3.org/2000/svg">
<path stroke="white" d="M129 116V156C129 159.183 127.736 162.235 125.485 164.485C123.235 166.736 120.183 168 117 168C113.817 168 110.765 166.736 108.515 164.485C106.264 162.235 105 159.183 105 156V116C105 112.817 106.264 109.765 108.515 107.515C110.765 105.264 113.817 104 117 104C120.183 104 123.235 105.264 125.485 107.515C127.736 109.765 129 112.817 129 116ZM232.82 86.64L219 190.64C218.347 195.447 215.974 199.855 212.321 203.047C208.667 206.238 203.981 207.998 199.13 208H34.87C30.0208 207.996 25.3369 206.237 21.6843 203.048C18.0316 199.858 15.6572 195.454 15 190.65L1.14 86.65C0.761929 83.8218 0.993383 80.9455 1.81882 78.2142C2.64425 75.4829 4.04456 72.9598 5.9257 70.8144C7.80684 68.669 10.1253 66.9509 12.7253 65.7756C15.3253 64.6002 18.1467 63.9948 21 64H55.55L108 4.1C109.126 2.8131 110.515 1.7818 112.072 1.07522C113.629 0.368642 115.32 0.00310516 117.03 0.00310516C118.74 0.00310516 120.431 0.368642 121.988 1.07522C123.545 1.7818 124.934 2.8131 126.06 4.1L178.45 64H213C215.848 64.0021 218.663 64.6126 221.256 65.7904C223.849 66.9683 226.161 68.6865 228.037 70.8299C229.912 72.9734 231.308 75.4927 232.131 78.2192C232.955 80.9458 233.186 83.8168 232.81 86.64H232.82ZM87.45 64H146.56L117 30.22L87.45 64ZM208.45 88H25.57L38.37 184H195.63L208.45 88ZM157.08 114.81L153.08 154.81C152.765 157.977 153.72 161.139 155.736 163.601C157.752 166.063 160.663 167.624 163.83 167.94C164.23 167.94 164.64 168 165.04 168C168.013 167.995 170.878 166.886 173.08 164.889C175.283 162.892 176.665 160.148 176.96 157.19L180.96 117.19C181.136 115.612 180.998 114.015 180.552 112.491C180.106 110.967 179.363 109.546 178.364 108.312C177.365 107.077 176.132 106.053 174.735 105.299C173.337 104.544 171.804 104.075 170.224 103.917C168.644 103.76 167.049 103.918 165.53 104.381C164.011 104.845 162.6 105.605 161.377 106.619C160.155 107.632 159.145 108.877 158.408 110.284C157.67 111.69 157.219 113.228 157.08 114.81ZM76.96 114.81C76.6095 111.672 75.0361 108.798 72.5808 106.812C70.1255 104.826 66.9864 103.888 63.844 104.201C60.7017 104.514 57.8095 106.053 55.7945 108.485C53.7795 110.916 52.8042 114.044 53.08 117.19L57.08 157.19C57.3748 160.148 58.7573 162.892 60.9595 164.889C63.1618 166.886 66.027 167.995 69 168C69.39 168 69.8 168 70.2 167.94C73.3666 167.624 76.2781 166.063 78.294 163.601C80.31 161.139 81.2654 157.977 80.95 154.81L76.96 114.81Z" fill="white"/>
</svg>
